<?xml version="1.0" standalone="no"?>
<!DOCTYPE svg PUBLIC "-//W3C//DTD SVG 20010904//EN"
 "http://www.w3.org/TR/2001/REC-SVG-20010904/DTD/svg10.dtd">
<svg version="1.0" xmlns="http://www.w3.org/2000/svg"
 width="700.000000pt" height="700.000000pt" viewBox="0 0 700.000000 700.000000"
 preserveAspectRatio="xMidYMid meet">
<metadata>
Created by potrace 1.14, written by Peter Selinger 2001-2017
</metadata>
<g transform="translate(0.000000,700.000000) scale(0.100000,-0.100000)"
fill="#000000" stroke="none">
<path d="M3248 6705 c-2 -2 -37 -6 -78 -10 -41 -4 -82 -9 -91 -10 -9 -2 -40
-6 -70 -10 -30 -4 -72 -10 -94 -15 -22 -5 -53 -11 -70 -14 -59 -11 -262 -66
-353 -96 -320 -106 -651 -278 -917 -478 -138 -104 -211 -167 -350 -307 -429
-427 -725 -967 -859 -1565 -26 -114 -29 -134 -41 -220 -3 -25 -8 -52 -10 -60
-26 -100 -27 -679 -1 -816 2 -10 7 -41 10 -69 9 -68 34 -200 47 -250 6 -22 12
-47 14 -55 16 -84 86 -297 142 -435 43 -106 155 -337 175 -362 6 -7 -2 -36
-26 -85 -139 -295 -119 -611 58 -876 216 -325 631 -465 1006 -341 351 116 590
454 590 832 0 54 -1 101 -4 105 -2 4 -7 29 -10 55 -9 62 -56 193 -97 266 -101
180 -281 330 -473 395 -175 59 -346 63 -549 11 -27 -7 -29 -5 -76 96 -80 171
-170 438 -196 584 -43 244 -49 314 -49 530 0 164 7 278 24 375 5 30 11 71 14
90 3 19 12 67 21 105 9 39 19 79 21 89 2 11 17 63 34 117 183 589 580 1109
1098 1438 238 151 525 272 792 335 185 43 212 48 370 63 159 16 522 7 630 -16
177 -37 351 108 346 289 -2 79 -24 135 -73 190 -61 68 -114 90 -248 105 -27 3
-81 10 -120 14 -64 8 -529 13 -537 6z m-1698 -4971 c75 -22 162 -109 184 -184
43 -145 -16 -285 -147 -350 -199 -98 -425 48 -418 269 2 59 35 146 68 178 50
50 77 67 125 84 66 23 119 24 188 3z"/>
<path d="M5468 6415 c-2 -2 -25 -6 -53 -9 -366 -48 -674 -350 -736 -721 -59
-360 118 -728 436 -906 70 -39 196 -84 264 -95 20 -3 39 -8 43 -10 10 -7 199
-6 243 1 22 4 65 13 96 21 31 8 60 14 63 14 8 0 69 -122 110 -222 51 -123 108
-304 132 -413 2 -11 6 -31 9 -45 11 -50 35 -198 42 -265 16 -139 8 -572 -12
-645 -2 -8 -6 -31 -9 -50 -3 -19 -8 -45 -10 -56 -2 -12 -7 -37 -10 -55 -3 -19
-13 -61 -21 -94 -9 -33 -18 -70 -20 -82 -18 -80 -109 -313 -175 -449 -147
-299 -374 -599 -605 -799 -31 -28 -65 -57 -74 -66 -47 -45 -258 -192 -362
-251 -272 -157 -649 -288 -926 -323 -26 -4 -59 -8 -72 -10 -67 -11 -202 -18
-332 -18 -147 1 -197 4 -344 25 -170 23 -247 2 -333 -91 -121 -131 -74 -364
89 -446 150 -77 769 -94 1119 -31 14 3 42 7 62 10 21 3 59 11 85 17 27 6 56
12 65 14 204 42 558 174 761 283 134 72 172 95 292 175 264 175 548 433 716
652 13 17 28 35 34 41 36 39 144 197 220 324 187 311 315 636 389 986 84 399
92 790 26 1199 -15 91 -19 108 -45 213 -27 112 -72 268 -84 297 -5 11 -30 75
-56 143 -27 68 -81 187 -120 266 l-73 144 33 68 c146 303 114 646 -86 911
-136 180 -328 296 -559 338 -36 7 -207 15 -212 10z m192 -607 c148 -62 214
-245 140 -394 -107 -217 -414 -215 -522 5 -31 63 -32 176 -2 241 68 146 235
210 384 148z"/>
<path d="M3355 4658 c-270 -31 -558 -187 -745 -404 -102 -118 -202 -308 -236
-449 -1 -5 -8 -32 -14 -60 -36 -151 -31 -379 12 -540 111 -414 422 -722 843
-835 171 -46 389 -46 570 0 413 105 737 426 846 840 31 120 42 306 25 441 -62
502 -463 918 -966 1000 -85 14 -247 17 -335 7z m284 -594 c255 -58 444 -298
442 -564 0 -36 -2 -76 -4 -90 -28 -181 -155 -352 -320 -430 -197 -95 -402 -81
-579 37 -89 59 -151 130 -199 228 -69 142 -80 291 -32 440 66 206 260 364 482
393 68 9 126 5 210 -14z"/>
</g>
</svg>
